<?xml version="1.0" standalone="no"?>
<!DOCTYPE svg PUBLIC "-//W3C//DTD SVG 20010904//EN"
 "http://www.w3.org/TR/2001/REC-SVG-20010904/DTD/svg10.dtd">
<svg version="1.0" xmlns="http://www.w3.org/2000/svg"
 width="1024.000000pt" height="1024.000000pt" viewBox="0 0 1024.000000 1024.000000"
 preserveAspectRatio="xMidYMid meet">

<g transform="translate(0.000000,1024.000000) scale(0.100000,-0.100000)"
fill="#000000" stroke="none">
<path d="M5055 8765 l-25 -24 0 -606 c0 -623 1 -633 39 -662 23 -17 82 -16
109 3 l22 15 0 634 0 634 -22 15 c-35 25 -94 20 -123 -9z"/>
<path d="M3813 8365 c-27 -27 -33 -40 -28 -57 4 -13 51 -104 105 -203 53 -99
119 -220 145 -270 159 -296 280 -513 298 -532 43 -48 137 -12 137 52 0 34
-512 987 -552 1027 -28 28 -66 22 -105 -17z"/>
<path d="M6327 8378 c-24 -21 -115 -179 -351 -613 -54 -99 -125 -228 -157
-287 -33 -58 -59 -114 -59 -123 0 -9 13 -30 29 -46 35 -34 81 -39 110 -10 16
16 154 263 460 821 55 102 101 194 101 206 0 27 -38 62 -76 70 -24 4 -37 0
-57 -18z"/>
<path d="M4538 8191 c-54 -28 -55 -38 -19 -168 86 -309 152 -540 162 -565 32
-80 158 -39 142 46 -6 32 -58 230 -133 501 -23 83 -48 160 -55 171 -18 29 -58
35 -97 15z"/>
<path d="M5604 8175 c-13 -20 -127 -420 -173 -607 -18 -74 -14 -111 13 -137
20 -19 31 -22 61 -17 20 4 41 16 49 29 13 19 162 548 189 666 9 42 8 46 -17
68 -38 33 -100 32 -122 -2z"/>
<path d="M3585 7645 c-50 -49 -43 -61 188 -297 281 -288 291 -295 348 -239 55
55 49 65 -158 269 -283 277 -300 292 -328 292 -14 0 -37 -11 -50 -25z"/>
<path d="M6555 7651 c-16 -10 -131 -120 -253 -244 -197 -198 -223 -228 -217
-249 18 -61 58 -88 107 -72 28 9 454 428 475 468 19 36 3 81 -38 101 -36 19
-38 19 -74 -4z"/>
<path d="M2877 7559 c-28 -16 -49 -73 -38 -102 6 -15 44 -48 93 -80 46 -30
196 -128 333 -219 138 -90 317 -208 399 -263 156 -103 188 -114 226 -80 24 22
34 68 21 94 -11 19 -824 568 -934 631 -58 32 -72 35 -100 19z"/>
<path d="M6833 7259 c-258 -171 -478 -321 -490 -332 -41 -37 -27 -105 26 -126
24 -10 34 -10 59 3 45 23 285 177 607 390 160 106 302 200 317 209 40 25 61
62 54 93 -9 36 -50 74 -80 74 -17 0 -189 -109 -493 -311z"/>
<path d="M4985 7253 c-154 -18 -310 -65 -442 -131 -327 -165 -579 -489 -646
-831 -12 -58 -22 -108 -24 -110 -1 -2 -80 8 -175 23 -425 64 -1170 140 -1220
123 -53 -17 -60 -150 -10 -176 9 -4 98 -16 197 -26 99 -10 182 -19 184 -21 2
-2 -17 -126 -44 -276 -68 -395 -123 -709 -140 -817 -25 -145 -51 -134 321
-136 170 -1 356 -8 414 -14 275 -31 518 -76 715 -132 106 -31 336 -111 331
-116 -2 -3 -35 0 -73 7 -393 65 -937 96 -1429 81 -185 -5 -298 -13 -312 -20
-26 -14 -37 -49 -35 -114 2 -91 -16 -87 394 -87 905 0 1710 -75 1954 -183 62
-27 81 -31 170 -31 93 -1 105 1 170 31 222 104 861 166 1844 180 530 7 501 2
501 92 0 77 -16 109 -58 120 -55 14 -502 20 -807 10 -337 -10 -727 -44 -916
-80 -125 -24 -103 -3 51 48 464 156 941 224 1440 207 143 -5 202 -4 218 5 37
20 37 14 -63 591 -73 420 -94 537 -105 584 -6 27 -9 50 -7 52 4 4 127 16 292
29 102 8 129 25 133 85 4 52 -12 93 -42 110 -34 18 -792 -60 -1221 -125 -55
-8 -119 -18 -141 -21 l-42 -6 -7 53 c-30 218 -163 476 -335 648 -196 195 -480
339 -732 371 -78 9 -237 11 -303 3z m-1735 -1183 c401 -50 721 -116 951 -196
257 -89 524 -233 707 -382 l42 -34 0 -389 0 -389 -122 61 c-353 177 -770 292
-1245 344 -161 17 -626 39 -660 30 -12 -3 -24 -2 -26 2 -5 8 29 238 92 623 28
168 36 217 56 318 8 38 -5 38 205 12z m3944 -2 c12 -58 147 -902 149 -933 2
-18 -3 -19 -63 -17 -112 5 -527 -17 -705 -38 -335 -38 -653 -118 -961 -240
-135 -54 -291 -128 -300 -141 -3 -5 -12 -9 -20 -9 -12 0 -14 56 -14 380 l0
379 68 55 c289 230 644 388 1078 480 153 32 635 102 726 105 31 1 38 -3 42
-21z"/>
<path d="M3021 6834 c-25 -32 -27 -81 -5 -105 21 -23 612 -259 648 -259 64 0
105 101 54 134 -41 26 -625 256 -651 256 -16 0 -34 -10 -46 -26z"/>
<path d="M7080 6831 c-218 -81 -560 -225 -575 -241 -37 -41 6 -124 63 -122 53
1 649 241 670 269 16 22 7 80 -15 106 -22 23 -55 21 -143 -12z"/>
<path d="M5000 4093 c-155 -12 -343 -88 -462 -187 -205 -172 -306 -446 -269
-726 53 -389 323 -641 731 -681 317 -30 604 97 771 342 87 129 119 234 126
415 5 121 3 152 -16 225 -64 256 -262 473 -515 565 -93 33 -263 55 -366 47z
m176 -288 c109 -21 177 -57 255 -134 288 -288 163 -784 -222 -886 -63 -17
-185 -19 -249 -4 -305 70 -468 445 -324 749 59 125 140 205 253 250 100 39
178 46 287 25z"/>
<path d="M2545 4073 c-16 -2 -40 -6 -52 -8 l-23 -5 0 -758 c0 -576 3 -761 12
-770 8 -8 55 -12 145 -12 124 0 133 1 143 21 8 15 11 161 8 504 -2 266 0 481
4 477 4 -4 96 -140 205 -301 109 -162 210 -303 225 -315 l28 -20 23 22 c13 12
113 157 223 321 109 165 202 300 207 300 4 1 7 -221 7 -492 0 -370 3 -496 12
-505 8 -8 53 -12 138 -12 85 0 130 4 138 12 9 9 12 192 12 764 0 687 -1 753
-17 765 -24 21 -243 20 -268 -1 -10 -8 -121 -169 -246 -357 -125 -187 -232
-344 -238 -347 -5 -4 -15 3 -21 15 -7 11 -112 173 -236 358 l-223 338 -47 7
c-48 6 -105 6 -159 -1z"/>
<path d="M6195 4072 c-32 -2 -65 -8 -72 -14 -10 -8 -13 -163 -13 -768 0 -682
2 -758 16 -764 30 -12 269 -7 282 6 9 9 12 87 12 290 l0 278 75 0 74 0 40 -67
c22 -38 91 -159 153 -271 63 -112 122 -212 131 -222 15 -18 30 -20 153 -20
128 0 174 8 174 31 0 11 -110 204 -244 428 -47 80 -86 148 -86 152 0 4 24 21
53 37 157 88 246 285 218 479 -30 212 -175 364 -388 408 -65 13 -436 24 -578
17z m536 -299 c58 -26 94 -73 108 -142 17 -83 -2 -154 -57 -213 -40 -43 -110
-61 -242 -62 l-115 -1 -3 224 -2 223 132 -4 c107 -3 142 -8 179 -25z"/>
<path d="M7485 4072 c-16 -2 -36 -8 -42 -14 -17 -14 -19 -1488 -3 -1519 10
-17 22 -19 141 -19 72 0 139 5 150 10 19 10 19 29 19 764 0 596 -3 756 -13
764 -12 11 -195 20 -252 14z"/>
<path d="M5798 2237 c-29 -34 -39 -40 -49 -29 -21 20 -39 14 -39 -13 0 -23 4
-25 43 -25 39 0 48 5 86 46 33 36 40 49 29 55 -22 14 -32 10 -70 -34z"/>
<path d="M7352 2208 c-16 -16 -15 -25 3 -25 8 0 15 5 15 10 0 6 11 1 23 -12
21 -19 26 -20 36 -7 10 11 8 17 -11 30 -27 19 -50 20 -66 4z"/>
<path d="M4595 2128 c-73 -26 -110 -92 -103 -183 6 -67 35 -108 94 -131 40
-15 53 -16 93 -5 53 14 88 43 107 88 32 75 4 187 -54 217 -39 20 -102 27 -137
14z m103 -83 c69 -66 3 -208 -81 -176 -29 11 -57 62 -57 102 0 33 29 85 53 97
28 13 56 6 85 -23z"/>
<path d="M4963 2130 c-72 -17 -105 -58 -118 -142 -9 -60 21 -128 69 -158 78
-48 244 -3 182 49 -11 9 -20 9 -35 2 -22 -12 -70 -14 -96 -5 -24 10 -45 58
-45 104 0 44 33 89 67 91 33 2 58 -3 72 -14 10 -9 16 -7 27 8 20 27 17 40 -8
53 -34 16 -79 21 -115 12z"/>
<path d="M6323 2129 c-50 -10 -83 -36 -104 -82 -36 -81 -21 -158 43 -212 29
-25 38 -27 104 -23 95 4 104 13 104 99 l0 69 -59 0 c-57 0 -58 -1 -53 -25 3
-16 11 -25 23 -25 14 0 19 -7 19 -30 0 -28 -2 -30 -39 -30 -100 0 -120 153
-27 199 24 11 34 11 66 -2 28 -11 41 -12 49 -4 15 15 14 44 -1 53 -21 13 -91
20 -125 13z"/>
<path d="M2440 2126 c0 -12 71 -272 80 -293 7 -17 18 -23 42 -23 l33 0 24 90
c13 50 27 92 31 95 4 2 18 -37 32 -88 l25 -92 35 -3 35 -3 21 73 c12 40 32
113 46 161 l24 88 -36 -3 -37 -3 -24 -103 c-13 -57 -27 -99 -31 -95 -3 4 -15
42 -25 83 -28 116 -30 120 -64 120 -33 0 -34 -2 -64 -133 -7 -32 -17 -59 -22
-60 -5 -1 -18 41 -29 93 l-21 95 -38 3 c-20 2 -37 1 -37 -2z"/>
<path d="M2910 1970 l0 -161 88 3 c87 3 87 3 90 31 3 27 2 27 -52 27 l-56 0 0
35 c0 31 3 35 28 36 65 3 67 3 67 29 0 23 -4 25 -47 28 -47 3 -48 4 -48 38 l0
34 56 0 c54 0 55 0 52 28 -3 27 -3 27 -90 30 l-88 3 0 -161z"/>
<path d="M3149 2125 c-3 -2 -4 -73 -2 -157 l2 -153 85 0 c76 0 87 3 110 24 36
34 36 94 1 117 l-26 17 22 23 c32 34 29 81 -5 111 -23 20 -38 23 -105 23 -43
0 -80 -2 -82 -5z m122 -55 c11 -6 19 -21 19 -35 0 -19 -7 -26 -32 -33 -42 -12
-48 -8 -48 33 0 42 23 55 61 35z m13 -133 c28 -20 17 -59 -19 -69 -16 -4 -36
-6 -42 -3 -13 5 -18 67 -6 78 11 11 48 8 67 -6z"/>
<path d="M3480 2100 c0 -28 2 -30 40 -30 l40 0 0 -130 0 -130 35 0 35 0 0 130
0 130 40 0 c38 0 40 2 40 30 l0 30 -115 0 -115 0 0 -30z"/>
<path d="M3757 2123 c-11 -10 -8 -184 4 -227 17 -61 49 -86 109 -86 62 0 104
20 118 57 6 15 12 80 14 143 l3 115 -32 3 -33 3 0 -103 c0 -126 -11 -153 -60
-153 -49 0 -60 27 -60 153 l0 102 -28 0 c-16 0 -32 -3 -35 -7z"/>
<path d="M4180 1970 l0 -160 35 0 35 0 0 65 0 65 55 0 55 0 0 -65 0 -65 35 0
35 0 0 160 0 160 -35 0 -35 0 0 -65 0 -65 -55 0 -55 0 0 65 0 65 -35 0 -35 0
0 -160z"/>
<path d="M5210 2100 c0 -29 2 -30 46 -30 l45 0 -2 -127 -2 -128 36 -3 37 -3 0
130 0 130 38 3 c32 3 37 7 40 31 l3 27 -120 0 -121 0 0 -30z"/>
<path d="M5490 1970 l0 -160 35 0 35 0 0 160 0 160 -35 0 -35 0 0 -160z"/>
<path d="M5630 1970 l0 -161 92 3 c92 3 93 3 93 28 0 23 -4 25 -55 30 -53 5
-55 6 -55 35 0 28 2 30 48 35 26 3 47 8 47 13 0 4 0 16 0 27 0 17 -7 20 -50
20 l-50 0 0 35 0 35 55 0 c54 0 55 0 55 30 l0 30 -90 0 -90 0 0 -160z"/>
<path d="M5880 1969 l0 -160 32 3 32 3 -2 98 c-1 53 1 97 5 97 5 -1 37 -46 72
-100 60 -94 65 -100 97 -100 l34 0 0 160 0 160 -35 0 -34 0 -3 -96 -3 -97 -62
97 c-59 92 -64 96 -98 96 l-35 0 0 -161z"/>
<path d="M6610 1970 l0 -160 36 0 35 0 -3 100 c-2 55 0 100 3 100 3 0 35 -45
70 -100 59 -93 66 -100 97 -100 l32 0 0 160 0 160 -32 0 -33 0 1 -94 c0 -52
-3 -93 -7 -90 -4 2 -33 45 -65 94 -56 87 -59 90 -96 90 l-38 0 0 -160z"/>
<path d="M6952 1973 l3 -158 33 -3 32 -3 0 50 c0 76 4 81 66 81 l54 0 0 -65 0
-65 35 0 35 0 0 160 0 160 -35 0 -35 0 0 -65 0 -65 -61 0 -61 0 4 63 3 62 -38
3 -38 3 3 -158z"/>
<path d="M7312 1988 c-66 -182 -64 -173 -22 -173 30 0 35 4 44 33 9 31 11 32
62 32 51 0 53 -1 65 -35 12 -32 17 -35 52 -35 33 0 38 3 32 18 -27 63 -105
277 -105 288 0 10 -13 14 -39 14 l-38 0 -51 -142z m102 6 c4 -19 10 -42 13
-50 4 -10 -4 -14 -31 -14 -40 0 -41 2 -25 51 6 19 13 40 15 47 7 22 21 4 28
-34z"/>
<path d="M7530 2100 c0 -28 2 -30 40 -30 l40 0 0 -130 0 -130 35 0 35 0 0 130
0 130 39 0 c31 0 40 4 44 22 3 12 4 25 1 30 -3 4 -57 8 -120 8 l-114 0 0 -30z"/>
<path d="M4606 1768 c-19 -17 -19 -19 -3 -35 21 -21 70 -7 75 21 3 15 -1 18
-22 14 -15 -3 -26 0 -28 7 -2 8 -10 6 -22 -7z"/>
<path d="M7370 1770 c-8 -5 -11 -12 -7 -16 4 -4 2 -13 -4 -21 -8 -9 -8 -13 -1
-13 18 0 62 22 62 31 0 15 -36 28 -50 19z"/>
<path d="M3816 1754 c-10 -26 49 -42 85 -24 16 9 18 14 9 26 -15 17 -87 16
-94 -2z"/>
</g>
</svg>
